<svg width="32" height="32" viewBox="0 0 32 32" fill="none" xmlns="http://www.w3.org/2000/svg"><mask id="a" mask-type="alpha" maskUnits="userSpaceOnUse" x="3" y="9" width="27" height="14"><path d="M3.08 22.4h3.43v-3.76h1.9c2.88 0 4.81-1.7 4.81-4.44 0-2.7-1.88-4.48-4.69-4.48H3.08V22.4zm3.43-6.44v-3.5h1.21c1.2 0 1.92.65 1.92 1.74 0 1.09-.72 1.76-1.92 1.76h-1.2z" fill="url(#paint0_linear)"/><path d="M14.48 9.72V22.4h3.36v-7.38h.1l2.8 7.28h2.03l2.81-7.23h.1v7.33h3.36V9.72h-4.27l-2.94 7.18h-.15l-2.93-7.18h-4.27z" fill="url(#paint1_linear)"/></mask><g mask="url(#a)"><path fill="#C2A6F1" d="M3.08 9.72h25.96V22.4H3.08z"/><path fill="url(#paint2_radial)" d="M3.08 9.72h25.96V22.4H3.08z"/><path fill="url(#paint3_linear)" d="M3.08 9.72h25.96V22.4H3.08z"/><path fill="url(#paint4_linear)" d="M3.08 9.72h25.96V22.4H3.08z"/><path fill="url(#paint5_radial)" d="M3.08 9.72h25.96V22.4H3.08z"/><path fill="url(#paint6_radial)" d="M3.08 9.72h25.96V22.4H3.08z"/><path fill="url(#paint7_linear)" d="M3.08 9.72h25.96V22.4H3.08z"/></g><defs><linearGradient id="paint0_linear" x1="3.08" y1="9.72" x2="29.27" y2="22.58" gradientUnits="userSpaceOnUse"><stop stop-color="#FB53CC"/><stop offset="1" stop-color="#35B989"/></linearGradient><linearGradient id="paint1_linear" x1="3.08" y1="9.72" x2="29.27" y2="22.58" gradientUnits="userSpaceOnUse"><stop stop-color="#FB53CC"/><stop offset="1" stop-color="#35B989"/></linearGradient><linearGradient id="paint3_linear" x1="30.89" y1="6.74" x2="28.53" y2="13.28" gradientUnits="userSpaceOnUse"><stop stop-color="#C0A9F0" stop-opacity="0"/><stop offset=".46" stop-color="#C0A9F0"/><stop offset="1" stop-color="#C0A9F0" stop-opacity="0"/></linearGradient><linearGradient id="paint4_linear" x1="9.68" y1="11.72" x2="12.45" y2="17.3" gradientUnits="userSpaceOnUse"><stop stop-color="#79F7FF"/><stop offset="1" stop-color="#CDF9E8" stop-opacity="0"/></linearGradient><linearGradient id="paint7_linear" x1="3.08" y1="9.72" x2="5.89" y2="13.51" gradientUnits="userSpaceOnUse"><stop stop-color="#B6FFAA"/><stop offset="1" stop-color="#E0F1A7" stop-opacity="0"/></linearGradient><radialGradient id="paint2_radial" cx="0" cy="0" r="1" gradientUnits="userSpaceOnUse" gradientTransform="rotate(119.92 9.04 15.1) scale(14.2467 10.7999)"><stop stop-color="#FFFDB1"/><stop offset=".34" stop-color="#FEE4BF"/><stop offset=".7" stop-color="#F0BDD0"/><stop offset="1" stop-color="#FF8126" stop-opacity="0"/></radialGradient><radialGradient id="paint5_radial" cx="0" cy="0" r="1" gradientUnits="userSpaceOnUse" gradientTransform="matrix(-3.6662 -3.46186 8.36629 -8.8601 14.9 15.38)"><stop stop-color="#9A47F3"/><stop offset="1" stop-color="#C2A6F1" stop-opacity="0"/></radialGradient><radialGradient id="paint6_radial" cx="0" cy="0" r="1" gradientUnits="userSpaceOnUse" gradientTransform="rotate(-155.11 9.57 8.77) scale(7.88644 11.4273)"><stop stop-color="#CF6BCF"/><stop offset="1" stop-color="#DC8DDC" stop-opacity="0"/></radialGradient></defs></svg>
